<?xml version="1.0" encoding="utf-8"?>
<!-- Generator: Adobe Illustrator 16.0.0, SVG Export Plug-In . SVG Version: 6.00 Build 0)  -->
<!DOCTYPE svg PUBLIC "-//W3C//DTD SVG 1.1//EN" "http://www.w3.org/Graphics/SVG/1.1/DTD/svg11.dtd">
<svg version="1.1" id="Layer_1" xmlns="http://www.w3.org/2000/svg" xmlns:xlink="http://www.w3.org/1999/xlink" x="0px" y="0px"
	 width="425.749px" height="145.509px" viewBox="0 0 425.749 145.509" enable-background="new 0 0 425.749 145.509"
	 xml:space="preserve">
<g>
	<g>
		<path fill="#818486" d="M164.001,85.479c-4.114,0-7.387-1.869-9.818-5.609c-2.432-3.738-3.648-8.789-3.648-15.153
			c0-6.389,1.222-11.457,3.666-15.209c2.444-3.75,5.735-5.626,9.873-5.626c3.872,0,6.933,1.9,9.183,5.699l0.291,0.472V31.07h4.247
			h4.283v53.357h-4.247h-4.283V79.2l-0.436,0.725C170.861,83.628,167.824,85.479,164.001,85.479z M166.578,52.884
			c-2.348,0-4.132,1.022-5.354,3.067c-1.222,2.045-1.833,5.039-1.833,8.983c0,3.92,0.611,6.896,1.833,8.929
			c1.222,2.033,3.006,3.049,5.354,3.049c2.371,0,4.167-1.021,5.39-3.066c1.222-2.045,1.833-5.028,1.833-8.948
			c0-3.848-0.623-6.812-1.869-8.893C170.685,53.925,168.901,52.884,166.578,52.884z"/>
		<path fill="#818486" d="M189.553,44.935h4.102h4.101v6.933l1.125-2.396c1.984-3.726,4.561-5.59,7.731-5.59
			c0.653,0,1.258,0.049,1.815,0.146V54.59c-0.726-0.121-1.524-0.182-2.396-0.182c-2.686,0-4.682,0.793-5.989,2.378
			s-1.96,3.999-1.96,7.241v20.399h-4.247h-4.283V44.935z"/>
		<path fill="#818486" d="M215.959,79.87c-2.989-3.738-4.483-8.789-4.483-15.153c0-6.389,1.494-11.457,4.483-15.209
			c2.988-3.75,7.023-5.626,12.105-5.626c5.104,0,9.146,1.876,12.122,5.626c2.977,3.752,4.465,8.82,4.465,15.209
			c0,6.364-1.488,11.415-4.465,15.153c-2.977,3.74-7.018,5.609-12.122,5.609C222.983,85.479,218.948,83.61,215.959,79.87z
			 M233.854,73.7c1.319-2.045,1.978-5.039,1.978-8.983c0-3.969-0.658-6.981-1.978-9.038s-3.249-3.085-5.789-3.085
			c-2.541,0-4.471,1.028-5.79,3.085c-1.319,2.057-1.978,5.069-1.978,9.038c0,3.944,0.659,6.938,1.978,8.983
			c1.319,2.045,3.249,3.068,5.79,3.068C230.604,76.769,232.534,75.745,233.854,73.7z"/>
		<path fill="#818486" d="M250.423,44.935h4.028h4.065v5.808l0.727-1.161c2.346-3.799,5.528-5.699,9.545-5.699
			c4.041,0,7.235,1.876,9.582,5.626c2.348,3.752,3.521,8.82,3.521,15.209c0,6.364-1.18,11.415-3.539,15.153
			c-2.359,3.74-5.56,5.609-9.601,5.609c-3.992,0-7.163-1.852-9.509-5.555l-0.291-0.471V99.89h-4.246h-4.283V44.935z M265.885,77.022
			c2.396,0,4.21-1.029,5.444-3.086s1.852-5.057,1.852-9.001c0-3.969-0.617-6.987-1.852-9.057c-1.234-2.068-3.037-3.103-5.408-3.103
			s-4.168,1.028-5.391,3.085c-1.222,2.057-1.832,5.069-1.832,9.038s0.61,6.981,1.832,9.038
			C261.753,75.993,263.538,77.022,265.885,77.022z"/>
		<path fill="#F69322" d="M315.865,69.944c-0.532,4.768-2.147,8.547-4.846,11.342s-6.093,4.193-10.181,4.193
			c-4.646,0-8.289-1.725-10.926-5.174c-2.638-3.447-3.957-8.232-3.957-14.354c0-7.065,1.35-12.511,4.048-16.334
			s6.526-5.735,11.487-5.735c4.234,0,7.551,1.266,9.945,3.794c2.396,2.528,3.871,6.333,4.429,11.415h-8.712
			c-0.217-1.984-0.832-3.563-1.846-4.737c-1.014-1.173-2.281-1.76-3.802-1.76c-2.148,0-3.802,0.992-4.961,2.977
			s-1.737,4.815-1.737,8.493c0,4.646,0.512,7.955,1.539,9.927c1.025,1.973,2.746,2.957,5.159,2.957c1.496,0,2.751-0.629,3.765-1.887
			c1.015-1.258,1.642-2.963,1.883-5.118H315.865z"/>
		<path fill="#F69322" d="M322.035,31.07h4.247h4.283v53.357h-4.247h-4.283V31.07z"/>
		<path fill="#F69322" d="M338.985,44.935h4.247h4.282v39.492h-4.246h-4.283V44.935z M339.022,30.562h8.457v9.655h-8.457V30.562z"/>
		<path fill="#F69322" d="M383.667,69.944c-0.533,4.768-2.148,8.547-4.846,11.342c-2.698,2.795-6.092,4.193-10.182,4.193
			c-4.646,0-8.287-1.725-10.925-5.174c-2.638-3.447-3.956-8.232-3.956-14.354c0-7.065,1.348-12.511,4.047-16.334
			c2.697-3.823,6.527-5.735,11.488-5.735c4.234,0,7.549,1.266,9.945,3.794c2.395,2.528,3.87,6.333,4.428,11.415h-8.711
			c-0.219-1.984-0.834-3.563-1.848-4.737c-1.014-1.173-2.28-1.76-3.801-1.76c-2.148,0-3.803,0.992-4.961,2.977
			s-1.738,4.815-1.738,8.493c0,4.646,0.514,7.955,1.539,9.927c1.026,1.973,2.746,2.957,5.16,2.957c1.496,0,2.751-0.629,3.766-1.887
			c1.014-1.258,1.641-2.963,1.883-5.118H383.667z"/>
		<path fill="#F69322" d="M389.837,31.07h4.247h4.282v29.057l10.721-15.191h5.221h5.221l-11.688,15.016l11.978,24.476h-5.112h-5.111
			l-7.727-16.862l-3.502,4.557v12.305h-4.246h-4.283V31.07z"/>
	</g>
</g>
<g>
	<g>
		<path fill="#808385" d="M154.26,128.083l4.45-11.588h1.652l4.742,11.588h-1.747l-1.352-3.51h-4.846l-1.272,3.51H154.26z
			 M157.604,123.323h3.928l-1.209-3.209c-0.369-0.975-0.643-1.775-0.822-2.402c-0.147,0.742-0.355,1.48-0.625,2.213L157.604,123.323
			z"/>
		<path fill="#808385" d="M169.935,128.083v-11.588h4.371c0.769,0,1.356,0.037,1.763,0.109c0.569,0.096,1.046,0.275,1.431,0.543
			c0.384,0.266,0.694,0.639,0.929,1.117c0.234,0.48,0.352,1.008,0.352,1.582c0,0.984-0.313,1.818-0.94,2.502
			c-0.627,0.682-1.76,1.023-3.399,1.023h-2.972v4.711H169.935z M171.468,122.005h2.996c0.991,0,1.694-0.186,2.111-0.555
			c0.416-0.369,0.624-0.887,0.624-1.557c0-0.484-0.122-0.9-0.367-1.244c-0.245-0.346-0.568-0.574-0.968-0.684
			c-0.258-0.068-0.735-0.104-1.431-0.104h-2.964V122.005z"/>
		<path fill="#808385" d="M180.755,128.083v-11.588h5.138c1.033,0,1.818,0.104,2.355,0.313c0.538,0.207,0.967,0.574,1.289,1.102
			s0.482,1.109,0.482,1.748c0,0.822-0.267,1.514-0.798,2.078c-0.533,0.564-1.354,0.922-2.466,1.074
			c0.406,0.195,0.714,0.389,0.925,0.578c0.448,0.41,0.872,0.924,1.272,1.541l2.016,3.154h-1.929l-1.533-2.412
			c-0.448-0.695-0.817-1.227-1.107-1.596c-0.29-0.369-0.549-0.627-0.778-0.775c-0.229-0.146-0.462-0.25-0.7-0.309
			c-0.174-0.035-0.458-0.055-0.854-0.055h-1.778v5.146H180.755z M182.289,121.608h3.296c0.701,0,1.249-0.072,1.644-0.217
			c0.396-0.145,0.696-0.377,0.901-0.695s0.308-0.666,0.308-1.039c0-0.549-0.199-1-0.597-1.352c-0.398-0.354-1.026-0.531-1.885-0.531
			h-3.667V121.608z"/>
		<path fill="#808385" d="M191.956,122.438c0-1.924,0.516-3.43,1.549-4.518c1.033-1.088,2.366-1.631,4-1.631
			c1.069,0,2.034,0.254,2.893,0.766s1.514,1.225,1.964,2.139s0.676,1.951,0.676,3.109c0,1.176-0.237,2.227-0.711,3.154
			s-1.146,1.631-2.016,2.107c-0.869,0.477-1.807,0.715-2.814,0.715c-1.091,0-2.065-0.264-2.924-0.791s-1.51-1.246-1.953-2.158
			C192.177,124.421,191.956,123.456,191.956,122.438z M193.537,122.462c0,1.396,0.375,2.498,1.126,3.301s1.693,1.205,2.826,1.205
			c1.154,0,2.104-0.406,2.85-1.217c0.746-0.813,1.119-1.963,1.119-3.455c0-0.943-0.16-1.766-0.479-2.469
			c-0.319-0.705-0.785-1.25-1.399-1.637s-1.303-0.582-2.067-0.582c-1.086,0-2.02,0.373-2.802,1.119
			C193.928,119.474,193.537,120.718,193.537,122.462z"/>
		<path fill="#808385" d="M205.014,128.083v-11.588h3.992c0.901,0,1.588,0.055,2.063,0.166c0.664,0.152,1.23,0.43,1.699,0.83
			c0.611,0.516,1.068,1.176,1.372,1.98c0.303,0.803,0.455,1.721,0.455,2.754c0,0.881-0.103,1.66-0.309,2.34
			s-0.469,1.242-0.791,1.688c-0.321,0.445-0.673,0.795-1.055,1.051c-0.382,0.256-0.843,0.449-1.383,0.582
			c-0.54,0.131-1.161,0.197-1.861,0.197H205.014z M206.547,126.716h2.474c0.764,0,1.363-0.072,1.798-0.215
			c0.435-0.143,0.781-0.342,1.039-0.6c0.364-0.363,0.647-0.854,0.85-1.467c0.203-0.613,0.304-1.357,0.304-2.232
			c0-1.213-0.199-2.145-0.597-2.795c-0.398-0.65-0.881-1.086-1.451-1.309c-0.411-0.158-1.072-0.236-1.984-0.236h-2.435V126.716z"/>
		<path fill="#808385" d="M224.309,116.495h1.533v6.695c0,1.164-0.132,2.088-0.395,2.773c-0.264,0.686-0.739,1.242-1.427,1.672
			c-0.688,0.43-1.59,0.645-2.708,0.645c-1.085,0-1.973-0.188-2.664-0.561c-0.69-0.375-1.183-0.916-1.478-1.625
			c-0.295-0.709-0.443-1.678-0.443-2.904v-6.695h1.534v6.688c0,1.006,0.093,1.748,0.28,2.225s0.509,0.844,0.964,1.102
			c0.456,0.26,1.013,0.389,1.672,0.389c1.127,0,1.931-0.256,2.411-0.768s0.72-1.494,0.72-2.947V116.495z"/>
		<path fill="#808385" d="M236.663,124.021l1.533,0.387c-0.322,1.26-0.9,2.219-1.734,2.881c-0.836,0.662-1.857,0.992-3.063,0.992
			c-1.249,0-2.265-0.254-3.048-0.764c-0.781-0.508-1.377-1.244-1.786-2.209c-0.409-0.963-0.613-2-0.613-3.105
			c0-1.207,0.23-2.26,0.692-3.158c0.461-0.898,1.117-1.58,1.968-2.047c0.851-0.467,1.787-0.699,2.81-0.699
			c1.159,0,2.134,0.295,2.925,0.885s1.341,1.42,1.652,2.49l-1.51,0.355c-0.27-0.844-0.659-1.457-1.17-1.842
			c-0.512-0.385-1.154-0.578-1.93-0.578c-0.89,0-1.635,0.215-2.232,0.641c-0.598,0.428-1.018,1-1.261,1.719
			c-0.242,0.721-0.363,1.463-0.363,2.227c0,0.984,0.144,1.846,0.431,2.58s0.734,1.285,1.34,1.648s1.262,0.545,1.969,0.545
			c0.858,0,1.586-0.248,2.182-0.742C236.049,125.729,236.452,124.995,236.663,124.021z"/>
		<path fill="#808385" d="M243.034,128.083v-10.221h-3.818v-1.367h9.185v1.367h-3.833v10.221H243.034z"/>
		<path fill="#808385" d="M253.712,122.438c0-1.924,0.517-3.43,1.549-4.518c1.033-1.088,2.367-1.631,4-1.631
			c1.07,0,2.034,0.254,2.893,0.766c0.859,0.512,1.514,1.225,1.965,2.139s0.676,1.951,0.676,3.109c0,1.176-0.237,2.227-0.711,3.154
			c-0.475,0.928-1.146,1.631-2.016,2.107s-1.808,0.715-2.814,0.715c-1.091,0-2.065-0.264-2.924-0.791
			c-0.859-0.527-1.51-1.246-1.953-2.158C253.934,124.421,253.712,123.456,253.712,122.438z M255.293,122.462
			c0,1.396,0.376,2.498,1.126,3.301c0.752,0.803,1.693,1.205,2.826,1.205c1.154,0,2.104-0.406,2.85-1.217
			c0.746-0.813,1.119-1.963,1.119-3.455c0-0.943-0.16-1.766-0.479-2.469c-0.319-0.705-0.785-1.25-1.399-1.637
			s-1.304-0.582-2.067-0.582c-1.086,0-2.02,0.373-2.802,1.119S255.293,120.718,255.293,122.462z"/>
		<path fill="#808385" d="M266.849,128.083v-11.588h7.817v1.367h-6.284v3.588h5.438v1.367h-5.438v5.266H266.849z"/>
	</g>
</g>
<g>
	<g>
		<path fill="#808385" d="M317.487,126.235l-3.738-11.816h3.037l2.215,7.744l2.035-7.744h3.016l1.97,7.744l2.259-7.744h3.082
			l-3.795,11.816h-3.004l-2.035-7.6l-2.004,7.6H317.487z"/>
		<path fill="#808385" d="M339.853,122.474l3.115,0.523c-0.4,1.143-1.033,2.012-1.897,2.609s-1.945,0.895-3.243,0.895
			c-2.055,0-3.576-0.67-4.563-2.014c-0.778-1.074-1.168-2.432-1.168-4.072c0-1.957,0.512-3.492,1.535-4.6
			c1.023-1.109,2.318-1.664,3.884-1.664c1.758,0,3.146,0.58,4.161,1.74c1.017,1.162,1.502,2.939,1.458,5.336h-7.833
			c0.021,0.928,0.273,1.648,0.756,2.164s1.083,0.773,1.803,0.773c0.49,0,0.901-0.133,1.235-0.4
			C339.429,123.497,339.682,123.067,339.853,122.474z M340.03,119.313c-0.022-0.904-0.256-1.592-0.701-2.064
			c-0.445-0.471-0.986-0.705-1.625-0.705c-0.682,0-1.246,0.248-1.691,0.744c-0.444,0.498-0.663,1.174-0.656,2.025H340.03z"/>
		<path fill="#808385" d="M344.581,122.864l3.138-0.479c0.134,0.607,0.404,1.068,0.812,1.385c0.408,0.314,0.98,0.473,1.715,0.473
			c0.808,0,1.416-0.148,1.824-0.445c0.274-0.207,0.412-0.486,0.412-0.834c0-0.238-0.074-0.434-0.223-0.59
			c-0.156-0.148-0.505-0.285-1.047-0.412c-2.521-0.557-4.12-1.064-4.795-1.523c-0.935-0.639-1.402-1.525-1.402-2.66
			c0-1.023,0.404-1.885,1.213-2.582s2.063-1.045,3.762-1.045c1.616,0,2.818,0.264,3.604,0.789c0.786,0.527,1.327,1.307,1.624,2.338
			l-2.948,0.545c-0.126-0.461-0.365-0.813-0.718-1.057c-0.352-0.246-0.855-0.367-1.508-0.367c-0.823,0-1.412,0.115-1.77,0.344
			c-0.236,0.164-0.355,0.375-0.355,0.635c0,0.223,0.104,0.412,0.312,0.568c0.282,0.207,1.255,0.5,2.921,0.879
			c1.665,0.377,2.828,0.842,3.488,1.391c0.652,0.557,0.979,1.33,0.979,2.324c0,1.084-0.452,2.016-1.357,2.793
			c-0.904,0.779-2.244,1.168-4.016,1.168c-1.61,0-2.885-0.326-3.822-0.979C345.483,124.87,344.87,123.983,344.581,122.864z"/>
		<path fill="#808385" d="M363.774,114.419v2.492h-2.137v4.762c0,0.965,0.021,1.525,0.062,1.686c0.041,0.16,0.134,0.291,0.278,0.395
			c0.145,0.105,0.32,0.156,0.529,0.156c0.289,0,0.707-0.1,1.257-0.301l0.267,2.426c-0.727,0.313-1.551,0.467-2.47,0.467
			c-0.563,0-1.072-0.094-1.524-0.283c-0.453-0.189-0.785-0.434-0.996-0.734s-0.357-0.707-0.439-1.219
			c-0.066-0.363-0.1-1.098-0.1-2.203v-5.15h-1.436v-2.492h1.436v-2.348l3.137-1.826v4.174H363.774z"/>
		<path fill="#415B80" d="M369.06,109.923v5.998c1.009-1.18,2.215-1.77,3.616-1.77c0.72,0,1.368,0.133,1.947,0.4
			s1.015,0.607,1.308,1.023s0.493,0.875,0.601,1.379c0.107,0.506,0.161,1.287,0.161,2.35v6.932h-3.127v-6.242
			c0-1.238-0.059-2.025-0.178-2.359c-0.118-0.334-0.328-0.6-0.629-0.795c-0.3-0.197-0.676-0.295-1.129-0.295
			c-0.52,0-0.982,0.125-1.391,0.377c-0.408,0.254-0.707,0.633-0.896,1.141c-0.188,0.51-0.283,1.26-0.283,2.254v5.92h-3.127v-16.313
			H369.06z"/>
		<path fill="#415B80" d="M379.141,120.159c0-1.037,0.256-2.043,0.768-3.016c0.512-0.971,1.237-1.713,2.175-2.225
			c0.939-0.512,1.986-0.768,3.144-0.768c1.788,0,3.253,0.58,4.396,1.74c1.143,1.162,1.713,2.629,1.713,4.402
			c0,1.787-0.576,3.27-1.73,4.445c-1.152,1.176-2.605,1.762-4.355,1.762c-1.083,0-2.116-0.244-3.099-0.734
			c-0.983-0.488-1.73-1.207-2.242-2.152S379.141,121.517,379.141,120.159z M382.345,120.327c0,1.172,0.278,2.068,0.834,2.691
			c0.557,0.623,1.243,0.936,2.059,0.936c0.816,0,1.501-0.313,2.054-0.936c0.552-0.623,0.829-1.527,0.829-2.715
			c0-1.156-0.277-2.047-0.829-2.67c-0.553-0.623-1.237-0.936-2.054-0.936c-0.815,0-1.502,0.313-2.059,0.936
			C382.623,118.257,382.345,119.155,382.345,120.327z"/>
		<path fill="#415B80" d="M392.683,122.864l3.137-0.479c0.134,0.607,0.404,1.068,0.813,1.385c0.408,0.314,0.979,0.473,1.714,0.473
			c0.808,0,1.417-0.148,1.825-0.445c0.273-0.207,0.411-0.486,0.411-0.834c0-0.238-0.074-0.434-0.223-0.59
			c-0.155-0.148-0.505-0.285-1.046-0.412c-2.521-0.557-4.121-1.064-4.795-1.523c-0.936-0.639-1.402-1.525-1.402-2.66
			c0-1.023,0.404-1.885,1.213-2.582s2.063-1.045,3.761-1.045c1.616,0,2.818,0.264,3.604,0.789c0.787,0.527,1.328,1.307,1.625,2.338
			l-2.949,0.545c-0.125-0.461-0.365-0.813-0.717-1.057c-0.353-0.246-0.855-0.367-1.508-0.367c-0.824,0-1.413,0.115-1.77,0.344
			c-0.237,0.164-0.355,0.375-0.355,0.635c0,0.223,0.104,0.412,0.311,0.568c0.282,0.207,1.256,0.5,2.922,0.879
			c1.664,0.377,2.828,0.842,3.488,1.391c0.652,0.557,0.979,1.33,0.979,2.324c0,1.084-0.453,2.016-1.357,2.793
			c-0.905,0.779-2.244,1.168-4.017,1.168c-1.61,0-2.884-0.326-3.822-0.979S392.972,123.983,392.683,122.864z"/>
		<path fill="#415B80" d="M411.876,114.419v2.492h-2.137v4.762c0,0.965,0.021,1.525,0.061,1.686c0.041,0.16,0.135,0.291,0.279,0.395
			c0.145,0.105,0.32,0.156,0.528,0.156c0.289,0,0.708-0.1,1.257-0.301l0.268,2.426c-0.728,0.313-1.551,0.467-2.471,0.467
			c-0.563,0-1.072-0.094-1.523-0.283c-0.453-0.189-0.785-0.434-0.996-0.734c-0.212-0.301-0.358-0.707-0.439-1.219
			c-0.067-0.363-0.101-1.098-0.101-2.203v-5.15h-1.436v-2.492h1.436v-2.348l3.138-1.826v4.174H411.876z"/>
	</g>
</g>
<polygon fill="#0F1E39" points="281.638,113.335 281.804,108.919 292.972,106.753 306.804,108.753 306.388,111.335 294.638,110.585 
	294.138,113.835 "/>
<polygon fill="#0F1E39" points="281.472,130.753 281.472,125.253 306.972,125.419 306.972,127.919 294.638,130.419 294.638,133.585 
	"/>
<polygon fill="#70757A" points="281.804,122.753 281.638,116.587 307.138,116.753 307.138,119.253 294.638,120.253 294.638,123.419 
	"/>
<path fill="#70757A" d="M113.958,30.866c-10.79-15.011-28.42-24.78-48.32-24.78c-32.86,0-59.5,26.64-59.5,59.5
	c0,32.861,26.64,59.5,59.5,59.5c0.53,0,1.06-0.01,1.58-0.02c10.69-0.279,20.68-3.381,29.24-8.59c0.01-0.131,0.01-0.26,0.01-0.391
	c0-1.959-0.35-3.84-1-5.57c-1.35-3.648-3.99-6.66-7.37-8.5c-0.01,0-0.01,0-0.01,0c-1.24-0.67-2.57-1.189-3.97-1.51
	c-4.57,2.43-9.69,3.98-15.13,4.441c-1.1,0.09-2.22,0.139-3.35,0.139c-21.82,0-39.5-17.68-39.5-39.5c0-21.82,17.68-39.5,39.5-39.5
	c12.88,0,24.32,6.16,31.53,15.7c3.72,4.92,6.31,10.74,7.39,17.08c0.95,0.52,1.97,0.93,3.04,1.229c1.28,0.36,2.64,0.55,4.04,0.55
	c3.58,0,6.86-1.25,9.43-3.34c1.13-0.92,2.13-2,2.96-3.21C122.358,45.555,118.858,37.675,113.958,30.866z"/>
<polygon fill="#F19622" points="110.305,116.087 81.138,73.587 132.471,69.586 116.971,81.753 145.471,96.419 139.138,110.419 
	110.638,96.419 "/>
<circle fill="#F19622" cx="65.638" cy="66.252" r="15"/>
</svg>
