<?xml version="1.0" encoding="utf-8"?>
<!-- Generator: Adobe Illustrator 16.0.0, SVG Export Plug-In . SVG Version: 6.00 Build 0)  -->
<!DOCTYPE svg PUBLIC "-//W3C//DTD SVG 1.1//EN" "http://www.w3.org/Graphics/SVG/1.1/DTD/svg11.dtd">
<svg version="1.1" id="Layer_1" xmlns="http://www.w3.org/2000/svg" xmlns:xlink="http://www.w3.org/1999/xlink" x="0px" y="0px"
	 width="114px" height="186.5px" viewBox="0 0 114 186.5" enable-background="new 0 0 114 186.5" xml:space="preserve">
<g>
	<path fill="#0F1E39" stroke="#FFFFFF" stroke-width="3" stroke-miterlimit="10" d="M107.502,170.5c0,6.627-5.373,12-12,12h-78
		c-6.627,0-12-5.373-12-12V17.165c0-6.628,5.373-12,12-12h78c6.627,0,12,5.372,12,12V170.5z"/>
	<path fill="#FFFFFF" d="M95,127.669c0,5.52-4.057,9.992-9.059,9.992H27.063c-5.003,0-9.059-4.473-9.059-9.992V29.994
		c0-5.519,4.056-9.991,9.059-9.991h58.879c5.002,0,9.059,4.473,9.059,9.991V127.669z"/>
	<circle fill="#0F1E39" stroke="#FFFFFF" stroke-width="3" stroke-miterlimit="10" cx="60" cy="159.498" r="11"/>
</g>
</svg>
