<?xml version="1.0" encoding="utf-8"?>
<!-- Generator: Adobe Illustrator 16.0.0, SVG Export Plug-In . SVG Version: 6.00 Build 0)  -->
<!DOCTYPE svg PUBLIC "-//W3C//DTD SVG 1.1//EN" "http://www.w3.org/Graphics/SVG/1.1/DTD/svg11.dtd">
<svg version="1.1" id="Layer_1" xmlns="http://www.w3.org/2000/svg" xmlns:xlink="http://www.w3.org/1999/xlink" x="0px" y="0px"
	 width="160px" height="217.166px" viewBox="0 0 160 217.166" enable-background="new 0 0 160 217.166" xml:space="preserve">
<g>
	<g>
		<path fill-rule="evenodd" clip-rule="evenodd" fill="#F4F3F4" d="M46.373,190.047c2.935-0.414,5.867-0.83,9.52-1.346
			c0,6.375,0,11.674,0,17.465c23.998,0,47.357,0,71.338,0c0-5.439,0-10.727,0-16.584c3.085,0,5.566,0,8.482,0
			c0,8.322,0,16.488,0,25.178c-29.509,0-58.705,0-89.324,0c0-8.363,0-16.537,0-24.713H46.373z"/>
		<path fill-rule="evenodd" clip-rule="evenodd" fill="#F4F3F4" d="M91.068,73.809c-5.527,0-11.055,0-17.193,0
			c0,11.689,0,23.002,0,34.604c-3.006,0-5.387,0-8.32,0c0-26.152,0-52.194,0-78.816c2.443-0.114,4.787-0.225,7.996-0.375
			c0,11.801,0,23.302,0,35.545c6.33,0,11.826,0,18.076,0c-0.298,3.603-0.529,6.402-0.761,9.201L91.068,73.809z"/>
		<path fill-rule="evenodd" clip-rule="evenodd" fill="#F4F3F4" d="M29.692,108.417c2.62,0.146,5.238,0.292,8.695,0.482
			c0-26.689,0-52.782,0-79.675c3.403,0,6.009,0,8.615,0l-0.208-0.201c0,32.12,0,64.24,0,96.878c-2.646,0-5.137,0-7.925,0
			c-0.27-2.565-0.518-4.935-0.796-7.583c-2.814-0.277-5.387-0.529-8.628-0.849c0.163-3.181,0.318-6.222,0.474-9.262L29.692,108.417z
			"/>
		<path fill-rule="evenodd" clip-rule="evenodd" fill="#F4F3F4" d="M144.775,101.25c2.547-0.398,5.095-0.799,8.363-1.311
			c0,21.048,0,41.361,0,61.767c-2.686,0.404-5.066,0.761-7.448,1.116l0.165,0.146c-0.215-13.287-0.426-26.573-0.645-39.86
			c-0.12-7.318-0.252-14.637-0.359-21.985C144.869,101.095,144.775,101.25,144.775,101.25z"/>
		<path fill-rule="evenodd" clip-rule="evenodd" fill="#F4F3F4" d="M90.866,73.967c8.886,0,17.772,0,27.065,0
			c0,2.394,0,4.719,0,7.813c-5.407,0-10.869,0-17.28,0c0,9.246,0,17.785,0,26.611c-3.358,0-5.752,0-9.555,0
			c0-11.604,0-23.105-0.015-34.594C91.068,73.809,90.866,73.967,90.866,73.967z"/>
		<path fill-rule="evenodd" clip-rule="evenodd" fill="#F4F3F4" d="M29.919,108.208c-5.775,0.284-11.55,0.571-18.189,0.899
			c0,5.541,0,10.995,0,16.885c-3.411,0-5.952,0-8.82,0c0-8.418,0-16.615,0-25.247c8.607,0,17.012,0,25.935,0
			c0.274,2.531,0.554,5.109,0.841,7.679C29.692,108.417,29.919,108.208,29.919,108.208z"/>
		<path fill-rule="evenodd" clip-rule="evenodd" fill="#F4F3F4" d="M135.694,91.093c-2.653,0-5.303,0-8.587,0
			c0,8.895,0,17.313,0,26.409c-2.935,0.139-5.275,0.249-8.197,0.387c0-11.699,0-23.123,0-34.899c5.39,0,10.665,0,16.583,0
			c0,2.746,0,5.513,0,8.281L135.694,91.093z"/>
		<path fill-rule="evenodd" clip-rule="evenodd" fill="#F4F3F4" d="M145.69,162.822c0,8.191,0,16.381,0,25.344
			c-3.379,0.184-5.887,0.32-8.967,0.488c0-8.865,0-17.182,0-26.395c3.171,0.242,6.144,0.467,9.124,0.702
			C145.855,162.969,145.69,162.822,145.69,162.822z"/>
		<path fill-rule="evenodd" clip-rule="evenodd" fill="#F4F3F4" d="M19.853,135.7c2.831,0,5.662,0,9.041,0
			c0.376,5.589,0.749,11.149,1.123,16.712l0.094-0.096c-2.937,0.318-5.87,0.636-10.096,1.093c0-6.571,0-12.226,0-17.878
			L19.853,135.7z"/>
		<path fill-rule="evenodd" clip-rule="evenodd" fill="#F4F3F4" d="M46.388,190.047c-2.388-0.785-4.775-1.57-7.619-2.508
			c0-5.014,0-10.271,0-15.986c2.719,0,5.059,0,8.457,0c-0.287,6.262-0.57,12.377-0.854,18.494H46.388z"/>
		<path fill-rule="evenodd" clip-rule="evenodd" fill="#F4F3F4" d="M47.002,29.225c0.144-2.619,0.286-5.237,0.451-8.219
			c5.645,0,10.896,0,16.681,0c0,2.466,0,4.947,0,8.021c-5.858,0-11.595,0-17.336-0.002C46.794,29.023,47.002,29.225,47.002,29.225z"
			/>
		<path fill-rule="evenodd" clip-rule="evenodd" fill="#F4F3F4" d="M30.017,152.412c2.326,0.467,4.652,0.935,7.481,1.503
			c0,5.313,0,10.729,0,16.517c-2.694,0-5.014,0-8.246,0c0.294-6.262,0.569-12.181,0.851-18.107
			C30.111,152.316,30.017,152.412,30.017,152.412z"/>
		<path fill-rule="evenodd" clip-rule="evenodd" fill="#F4F3F4" d="M135.493,91.271c2.817,0,5.636,0,9.308,0
			c0,3.645,0,6.791-0.013,9.959c-0.013,0.021,0.081-0.135,0.063-0.106c-2.494-0.6-4.969-1.227-8.019-2.001
			c-0.342-2.441-0.733-5.24-1.134-8.034C135.694,91.093,135.493,91.271,135.493,91.271z"/>
		<path fill-rule="evenodd" clip-rule="evenodd" fill="#F4F3F4" d="M20.015,135.531c-2.426,0-4.854,0-7.771,0
			c0-2.836,0-5.353,0-8.328c2.416,0,4.759,0,7.619,0c0,2.923,0,5.704-0.006,8.491C19.853,135.7,20.015,135.531,20.015,135.531z"/>
	</g>
</g>
<path fill-rule="evenodd" clip-rule="evenodd" fill="none" stroke="#F4F3F4" stroke-width="5" stroke-miterlimit="10" d="
	M38.58,53.334C32.355,48.106,28.398,40.266,28.398,31.5c0-15.74,12.76-28.5,28.5-28.5s28.5,12.76,28.5,28.5
	c0,8.753-3.945,16.584-10.156,21.813"/>
<path fill-rule="evenodd" clip-rule="evenodd" fill="none" stroke="#F4F3F4" stroke-width="2" stroke-miterlimit="10" d="
	M46.437,42.539c-3.556-2.984-5.815-7.463-5.815-12.469c0-8.989,7.286-16.276,16.276-16.276c8.988,0,16.275,7.287,16.275,16.276
	c0,4.999-2.253,9.471-5.799,12.457"/>
</svg>
