<?xml version="1.0" encoding="utf-8"?>
<!-- Generator: Adobe Illustrator 16.0.0, SVG Export Plug-In . SVG Version: 6.00 Build 0)  -->
<!DOCTYPE svg PUBLIC "-//W3C//DTD SVG 1.1//EN" "http://www.w3.org/Graphics/SVG/1.1/DTD/svg11.dtd">
<svg version="1.1" id="Layer_1" xmlns="http://www.w3.org/2000/svg" xmlns:xlink="http://www.w3.org/1999/xlink" x="0px" y="0px"
	 width="202.5px" height="162.5px" viewBox="0 0 202.5 162.5" enable-background="new 0 0 202.5 162.5" xml:space="preserve">
<g>
	<path fill="#D5EFFE" d="M131.042,135.969c-22.044,0-42.561-10.947-54.88-29.283l-1.039-1.548l1.815-0.424
		c1.963-0.458,3.916-0.831,5.827-1.112l-10.59-21.935c-0.863,0.601-2.15,1.509-3.762,2.686l-1.607,1.173l-0.5-2.36
		c-0.091-0.424-0.182-0.847-0.261-1.275c-0.722-3.935-1.088-7.974-1.088-12.006c0-36.439,29.645-66.084,66.084-66.084
		s66.085,29.646,66.085,66.084C197.127,106.323,167.481,135.969,131.042,135.969z"/>
	<path fill="#FFFFFF" d="M131.042,5.087c-35.787,0-64.797,29.011-64.797,64.797c0,4.021,0.367,7.956,1.068,11.774
		c0.102,0.556,0.226,1.104,0.342,1.655c3.137-2.288,5.027-3.558,5.027-3.558l12.016,24.889c-2.518,0.299-5.008,0.75-7.466,1.324
		c11.632,17.313,31.385,28.713,53.811,28.713c35.787,0,64.797-29.011,64.797-64.797S166.829,5.087,131.042,5.087z"/>
	<path fill="#D5EFFE" d="M4.892,158.108c4.239-30.714,44.773-63.266,62.004-75.836l1.607-1.172l0.411,1.947
		c1.679,7.963,4.836,15.433,9.385,22.203l1.04,1.548l-1.815,0.424c-38.907,9.083-70.005,51.393-70.315,51.818L4.892,158.108z"/>
	<path fill="#FFFFFF" d="M6.167,158.284c0,0,31.22-43.014,71.064-52.316c-4.542-6.759-7.84-14.417-9.577-22.655
		C52.894,94.08,10.416,127.494,6.167,158.284z"/>
	<path fill="#FFFFFF" d="M76.162,106.686c-4.734-7.045-8.02-14.819-9.768-23.107l-0.171-0.815l0.673-0.49
		c3.121-2.276,4.989-3.534,5.067-3.586l1.232-0.828l13.445,27.851l-1.792,0.213c-2.377,0.282-4.841,0.72-7.325,1.3l-0.866,0.202
		L76.162,106.686z"/>
	<path fill="#FFFFFF" d="M72.681,79.755c0,0-1.89,1.27-5.027,3.558c1.736,8.238,5.035,15.896,9.577,22.655
		c2.458-0.574,4.948-1.025,7.466-1.324L72.681,79.755z"/>
</g>
</svg>
