<?xml version="1.0" encoding="utf-8"?>
<!-- Generator: Adobe Illustrator 16.0.0, SVG Export Plug-In . SVG Version: 6.00 Build 0)  -->
<!DOCTYPE svg PUBLIC "-//W3C//DTD SVG 1.1//EN" "http://www.w3.org/Graphics/SVG/1.1/DTD/svg11.dtd">
<svg version="1.1" id="Layer_1" xmlns="http://www.w3.org/2000/svg" xmlns:xlink="http://www.w3.org/1999/xlink" x="0px" y="0px"
	 width="413.075px" height="657.165px" viewBox="0 0 413.075 657.165" enable-background="new 0 0 413.075 657.165"
	 xml:space="preserve">
<g>
	<path fill="#D5EFFE" d="M316.718,313.218c-34.396,12.468-65.559,9.53-95.152-12.111l-2.496-1.827l2.592-1.687
		c2.805-1.826,5.641-3.512,8.463-5.032l-35.973-30.773c-1.006,1.425-2.499,3.57-4.349,6.319l-1.844,2.738l-2.115-3.4
		c-0.382-0.609-0.763-1.219-1.129-1.842c-3.351-5.731-6.207-11.826-8.488-18.117c-20.611-56.856,8.878-119.879,65.734-140.49
		c56.855-20.611,119.879,8.876,140.49,65.733C403.063,229.583,373.574,292.607,316.718,313.218z"/>
	<path fill="#FFFFFF" d="M242.688,109.002c-55.838,20.242-84.694,81.916-64.453,137.754c2.274,6.273,5.071,12.205,8.325,17.766
		c0.475,0.811,0.977,1.597,1.47,2.39c3.6-5.345,5.832-8.395,5.832-8.395l39.866,34.575c-3.761,1.892-7.391,4.004-10.901,6.29
		c27.943,20.433,58.171,24.511,93.161,11.826c55.838-20.241,84.695-81.916,64.454-137.753
		C360.201,117.617,298.527,88.761,242.688,109.002z"/>
	<path fill="#D5EFFE" d="M37.854,578.362c-10.76-50.32,128.63-283.285,148.405-312.645l1.846-2.739l1.741,2.806
		c7.123,11.474,23.316,23.882,34.244,31.873l2.498,1.826l-2.594,1.688C168.425,337.351,42.237,577.667,41.995,578.507
		L37.854,578.362z"/>
	<path fill="#FFFFFF" d="M39.942,577.915c0,0,125.978-241.483,182.885-278.533c-10.908-7.977-27.428-20.6-34.797-32.47
		C171.09,292.062,29.156,527.47,39.942,577.915z"/>
	<path fill="#FFFFFF" d="M221.565,301.106c-11.37-8.315-27.937-21.125-35.351-33.068l-0.728-1.175l0.771-1.146
		c3.582-5.317,5.785-8.337,5.878-8.462l1.455-1.988l43.771,38.388l-2.676,1.346c-3.549,1.786-7.145,3.862-10.693,6.171l-1.236,0.806
		L221.565,301.106z"/>
	<path fill="#FFFFFF" d="M193.862,258.518c0,0-2.232,3.05-5.832,8.395c7.369,11.871,23.889,24.493,34.797,32.47
		c3.511-2.286,7.141-4.398,10.901-6.29L193.862,258.518z"/>
</g>
</svg>
