<?xml version="1.0" encoding="utf-8"?>
<!-- Generator: Adobe Illustrator 16.0.0, SVG Export Plug-In . SVG Version: 6.00 Build 0)  -->
<!DOCTYPE svg PUBLIC "-//W3C//DTD SVG 1.1//EN" "http://www.w3.org/Graphics/SVG/1.1/DTD/svg11.dtd">
<svg version="1.1" id="Layer_1" xmlns="http://www.w3.org/2000/svg" xmlns:xlink="http://www.w3.org/1999/xlink" x="0px" y="0px"
	 width="340px" height="540.909px" viewBox="0 0 340 540.909" enable-background="new 0 0 340 540.909" xml:space="preserve">
<g>
	<path fill="#D5EFFE" d="M94.704,273.756c40.342,16.188,77.464,13.95,113.476-10.557l3.037-2.07l-3.008-2.107
		c-3.258-2.281-6.559-4.399-9.85-6.316l43.955-35.097c1.137,1.731-3.902,10.503-1.816,13.841l2.078,3.326l9.375-10.116
		c0.479-0.708,0.955-1.417,1.416-2.142c4.207-6.672,7.846-13.794,10.807-21.172c26.761-66.686-5.723-142.709-72.41-169.469
		c-66.686-26.761-142.709,5.723-169.47,72.408C-4.466,170.97,28.017,246.994,94.704,273.756z"/>
	<path fill="#FFFFFF" d="M190.818,34.231c65.492,26.281,97.279,100.676,71,166.169c-2.953,7.357-6.514,14.289-10.601,20.762
		c-0.597,0.944-1.224,1.856-1.842,2.779c-4.06-6.492-6.587-10.203-6.587-10.203l-48.729,39.453c4.39,2.398,8.614,5.053,12.692,7.908
		c-34.004,23.141-70.062,26.768-111.102,10.298c-65.492-26.28-97.28-100.676-71-166.167C50.931,39.738,125.325,7.952,190.818,34.231
		z"/>
	<path fill="#D5EFFE" d="M283.961,571.478c14.799-59.32-20.13-303.559-42.433-339.218l-2.083-3.326l-2.178,3.262
		c-8.92,13.338-28.65,27.424-41.947,36.473l-3.039,2.067l3.013,2.108c64.533,45.196,83.487,297.632,83.743,298.64L283.961,571.478z"
		/>
	<path fill="#FFFFFF" d="M280.498,568.864c0,0-21.914-255.047-88-301.331c13.273-9.033,36.652-22.125,45.878-35.926
		C257.482,262.153,295.334,509.397,280.498,568.864z"/>
	<path fill="#FFFFFF" d="M205.18,262.199c13.836-9.42,34.022-23.964,43.308-37.848l0.911-1.367l-0.87-1.391
		c-4.04-6.457-6.534-10.133-6.64-10.285l-1.648-2.42l-53.521,43.826l3.125,1.706c4.143,2.263,8.327,4.872,12.45,7.757l1.436,1.006
		L205.18,262.199z"/>
	<path fill="#FFFFFF" d="M239.289,213.238c0,0,2.527,3.711,6.587,10.203c-9.226,13.8-29.351,28.125-42.624,37.158
		c-4.078-2.855-8.303-5.51-12.692-7.908L239.289,213.238z"/>
</g>
</svg>
