<?xml version="1.0" encoding="utf-8"?>
<!-- Generator: Adobe Illustrator 16.0.0, SVG Export Plug-In . SVG Version: 6.00 Build 0)  -->
<!DOCTYPE svg PUBLIC "-//W3C//DTD SVG 1.1//EN" "http://www.w3.org/Graphics/SVG/1.1/DTD/svg11.dtd">
<svg version="1.1" id="Layer_1" xmlns="http://www.w3.org/2000/svg" xmlns:xlink="http://www.w3.org/1999/xlink" x="0px" y="0px"
	 width="350px" height="378px" viewBox="0 0 350 378" enable-background="new 0 0 350 378" xml:space="preserve">
<g>
	<path fill="#D5EFFE" d="M109.266,218.635c34.813,0.376,61.875-12.064,81.647-40.807l1.665-2.427l-2.857-0.701
		c-3.094-0.756-6.172-1.381-9.185-1.855l22.628-38.955c1.353,0.963,3.368,2.421,5.894,4.306l2.517,1.882l0.83-3.722
		c0.152-0.666,0.302-1.333,0.436-2.008c1.205-6.2,1.854-12.573,1.924-18.941c0.627-57.544-45.681-104.87-103.227-105.495
		C53.993,9.284,6.667,55.592,6.039,113.137C5.413,170.682,51.721,218.006,109.266,218.635z"/>
	<path fill="#FFFFFF" d="M111.515,11.944c56.515,0.615,101.83,46.927,101.216,103.443c-0.07,6.348-0.717,12.557-1.889,18.573
		c-0.172,0.877-0.375,1.739-0.568,2.609c-4.914-3.668-7.877-5.706-7.877-5.706l-24.93,43.592c3.973,0.518,7.896,1.272,11.77,2.221
		c-18.668,27.141-44.533,40.311-79.948,39.924C52.774,215.984,7.458,169.673,8.072,113.16C8.688,56.644,55,11.33,111.515,11.944z"/>
	<path fill="#D5EFFE" d="M339.184,368.361c-6.165-48.575-105.359-203.158-132.354-223.307l-2.521-1.879l-0.679,3.068
		c-2.79,12.544-13.431,28.784-20.729,39.396l-1.67,2.425l2.861,0.701c61.287,15.014,150.936,180.352,151.418,181.029
		L339.184,368.361z"/>
	<path fill="#FFFFFF" d="M335.841,367.415c0,0-92.616-166.428-155.378-181.802c7.287-10.593,20.941-27.151,23.824-40.13
		C227.412,162.741,329.66,318.72,335.841,367.415z"/>
	<path fill="#FFFFFF" d="M190.913,177.828c7.595-11.047,18.442-27.763,21.346-40.819l0.282-1.284l-1.052-0.787
		c-4.89-3.647-7.817-5.667-7.94-5.75l-1.932-1.328l-27.237,48.246l2.826,0.365c3.749,0.488,7.631,1.222,11.546,2.178l1.363,0.335
		L190.913,177.828z"/>
	<path fill="#FFFFFF" d="M202.396,130.863c0,0,2.963,2.038,7.877,5.706c-2.883,12.978-13.75,29.513-21.037,40.106
		c-3.873-0.948-7.797-1.703-11.77-2.221L202.396,130.863z"/>
</g>
</svg>
