<?xml version="1.0" encoding="utf-8"?>
<!-- Generator: Adobe Illustrator 16.0.0, SVG Export Plug-In . SVG Version: 6.00 Build 0)  -->
<!DOCTYPE svg PUBLIC "-//W3C//DTD SVG 1.1//EN" "http://www.w3.org/Graphics/SVG/1.1/DTD/svg11.dtd">
<svg version="1.1" id="Layer_1" xmlns="http://www.w3.org/2000/svg" xmlns:xlink="http://www.w3.org/1999/xlink" x="0px" y="0px"
	 width="309.818px" height="492.894px" viewBox="0 0 309.818 492.894" enable-background="new 0 0 309.818 492.894"
	 xml:space="preserve">
<g>
	<path fill="#D5EFFE" d="M257.027,192.458c-23.808,28.522-52.653,41.873-89.684,38.013l-3.124-0.328l1.411-2.805
		c1.528-3.036,3.154-5.967,4.854-8.742l-47.297-8.614c-0.154,1.764-0.367,4.41-0.586,7.767l-0.217,3.345l-3.595-1.902
		c-0.646-0.339-1.293-0.68-1.932-1.039c-5.871-3.316-11.493-7.204-16.71-11.558C53,167.241,46.66,96.866,86.014,49.717
		C125.366,2.568,195.741-3.773,242.891,35.58C290.039,74.933,296.381,145.308,257.027,192.458z"/>
	<path fill="#FFFFFF" d="M87.678,51.107C49.03,97.412,55.236,166.279,101.54,204.929c5.202,4.341,10.688,8.117,16.387,11.333
		c0.831,0.469,1.673,0.901,2.512,1.346c0.426-6.53,0.826-10.347,0.826-10.347l52.654,9.959c-2.332,3.583-4.438,7.292-6.35,11.092
		c34.965,3.646,63.572-8.229,87.791-37.246c38.648-46.304,32.443-115.173-13.86-153.821C195.195-1.403,126.328,4.803,87.678,51.107z
		"/>
	<path fill="#D5EFFE" d="M147.869,567.661c-35.163-38.653-31.939-314.324-29.596-350.196l0.219-3.347l2.962,1.573
		c12.116,6.426,32.669,9.038,46.342,10.462l3.126,0.325l-1.414,2.808c-30.266,60.152-18.146,335.524-17.931,336.385L147.869,567.661
		z"/>
	<path fill="#FFFFFF" d="M149.475,566.203c0,0-12.9-276.29,18.095-337.891c-13.648-1.423-34.597-4.055-47.131-10.705
		C118.43,248.336,114.223,527.452,149.475,566.203z"/>
	<path fill="#FFFFFF" d="M167.344,230.471c-14.229-1.486-35.313-4.257-47.924-10.946l-1.238-0.66l0.092-1.399
		c0.425-6.496,0.814-10.272,0.832-10.43l0.26-2.489l58.032,11.31l-1.66,2.549c-2.202,3.381-4.295,7.04-6.229,10.881l-0.673,1.339
		L167.344,230.471z"/>
	<path fill="#FFFFFF" d="M121.265,207.261c0,0-0.4,3.817-0.826,10.347c12.534,6.65,33.482,9.282,47.131,10.705
		c1.912-3.801,4.018-7.51,6.35-11.092L121.265,207.261z"/>
</g>
</svg>
