<?xml version="1.0" encoding="utf-8"?>
<!-- Generator: Adobe Illustrator 16.0.0, SVG Export Plug-In . SVG Version: 6.00 Build 0)  -->
<!DOCTYPE svg PUBLIC "-//W3C//DTD SVG 1.1//EN" "http://www.w3.org/Graphics/SVG/1.1/DTD/svg11.dtd">
<svg version="1.1" id="Layer_1" xmlns="http://www.w3.org/2000/svg" xmlns:xlink="http://www.w3.org/1999/xlink" x="0px" y="0px"
	 width="220px" height="169.333px" viewBox="0 0 220 169.333" enable-background="new 0 0 220 169.333" xml:space="preserve">
<path fill-rule="evenodd" clip-rule="evenodd" fill="#0C2732" d="M78.153,169.97c2.181-7.55,1.033-15.123,0.181-22.699
	c-0.804-7.144-1.661-14.283-2.341-21.44c-0.544-5.724-2.174-7.816-7.976-8.629c-3.833-0.538-7.744-0.52-11.62-0.761
	c-2.724-0.168-5.49-0.108-8.164-0.576c-10.885-1.904-16.983-10.801-14.764-21.617c0.741-3.613,0.314-6.615-2.257-9.414
	c-2.244-2.442-1.723-3.904,1.738-6.253c-0.086-0.129-0.149-0.332-0.269-0.374c-5.126-1.785-5.38-2.311-4.384-7.822
	c0.38-2.101,0.495-4.249,0.756-6.595c-1.751-0.128-3.208-0.215-4.662-0.346c-6.244-0.56-10.463-6.697-5.919-12.799
	c3.956-5.313,7.282-11.098,11.269-16.385c3.946-5.232,4.74-10.869,3.95-17.149c-0.584-4.651-0.585-9.378-0.76-14.075
	c-0.036-0.962,0.308-1.938,0.515-3.131c4.005,0,7.887-0.005,11.769,0c29.421,0.042,58.843,0.109,88.265,0.121
	c17.323,0.007,34.646-0.034,51.97-0.164c2.168-0.016,2.943,0.642,3.394,2.77c3.388,16.032,1.796,31.499-5.024,46.389
	c-3.175,6.93-6.017,14.082-9.911,20.595c-6.611,11.057-8.341,23.046-8.671,35.538c-0.369,13.978,2.895,26.802,10.434,38.736
	c5.299,8.389,9.667,17.365,14.45,26.079C152.798,169.97,115.476,169.97,78.153,169.97z"/>
<radialGradient id="SVGID_1_" cx="112.8975" cy="-0.4175" r="123.2248" gradientUnits="userSpaceOnUse">
	<stop  offset="0" style="stop-color:#2E6576"/>
	<stop  offset="1" style="stop-color:#0C2732"/>
</radialGradient>
<path fill-rule="evenodd" clip-rule="evenodd" fill="url(#SVGID_1_)" d="M78.153,169.97c2.181-7.55,1.033-15.123,0.181-22.699
	c-0.804-7.144-1.661-14.283-2.341-21.44c-0.544-5.724-2.174-7.816-7.976-8.629c-3.833-0.538-7.744-0.52-11.62-0.761
	c-2.724-0.168-5.49-0.108-8.164-0.576c-10.885-1.904-16.983-10.801-14.764-21.617c0.741-3.613,0.314-6.615-2.257-9.414
	c-2.244-2.442-1.723-3.904,1.738-6.253c-0.086-0.129-0.149-0.332-0.269-0.374c-5.126-1.785-5.38-2.311-4.384-7.822
	c0.38-2.101,0.495-4.249,0.756-6.595c-1.751-0.128-3.208-0.215-4.662-0.346c-6.244-0.56-10.463-6.697-5.919-12.799
	c3.956-5.313,7.282-11.098,11.269-16.385c3.946-5.232,4.74-10.869,3.95-17.149c-0.584-4.651-0.585-9.378-0.76-14.075
	c-0.036-0.962,0.308-1.938,0.515-3.131c4.005,0,7.887-0.005,11.769,0c29.421,0.042,58.843,0.109,88.265,0.121
	c17.323,0.007,34.646-0.034,51.97-0.164c2.168-0.016,2.943,0.642,3.394,2.77c3.388,16.032,1.796,31.499-5.024,46.389
	c-3.175,6.93-6.017,14.082-9.911,20.595c-6.611,11.057-8.341,23.046-8.671,35.538c-0.369,13.978,2.895,26.802,10.434,38.736
	c5.299,8.389,9.667,17.365,14.45,26.079C152.798,169.97,115.476,169.97,78.153,169.97z"/>
</svg>
