<?xml version="1.0" encoding="utf-8"?>
<!-- Generator: Adobe Illustrator 16.0.0, SVG Export Plug-In . SVG Version: 6.00 Build 0)  -->
<!DOCTYPE svg PUBLIC "-//W3C//DTD SVG 1.1//EN" "http://www.w3.org/Graphics/SVG/1.1/DTD/svg11.dtd">
<svg version="1.1" id="Layer_1" xmlns="http://www.w3.org/2000/svg" xmlns:xlink="http://www.w3.org/1999/xlink" x="0px" y="0px"
	 width="129px" height="49px" viewBox="0 0 129 49" enable-background="new 0 0 129 49" xml:space="preserve">
<g>
	<path stroke="#000000" stroke-miterlimit="10" d="M67.423,34.025h-6.829l-2.047-9.314c-0.098-0.391-0.251-1.165-0.46-2.325
		c-0.21-1.16-0.363-2.13-0.461-2.91c-0.078,0.634-0.205,1.421-0.38,2.361c-0.176,0.941-0.349,1.806-0.519,2.596
		c-0.171,0.79-0.88,3.987-2.128,9.593H47.77l-5.294-21.379h5.572l2.325,10.719c0.526,2.369,0.887,4.255,1.082,5.659
		c0.127-0.994,0.354-2.345,0.68-4.051s0.631-3.119,0.914-4.24l1.886-8.087h5.352l1.828,8.087c0.312,1.296,0.629,2.793,0.951,4.489
		s0.536,2.963,0.644,3.802c0.126-1.082,0.473-2.959,1.038-5.63l2.369-10.748h5.571L67.423,34.025z"/>
	<path stroke="#000000" stroke-miterlimit="10" d="M75.451,34.025V12.646h5.805v21.379H75.451z"/>
	<path stroke="#000000" stroke-miterlimit="10" d="M95.396,17.077c-1.374,0-2.447,0.563-3.217,1.689s-1.155,2.678-1.155,4.657
		c0,4.114,1.565,6.171,4.694,6.171c0.945,0,1.861-0.132,2.749-0.395c0.887-0.264,1.778-0.58,2.676-0.951v4.885
		c-1.784,0.789-3.802,1.184-6.054,1.184c-3.227,0-5.701-0.936-7.422-2.808c-1.721-1.871-2.58-4.576-2.58-8.115
		c0-2.213,0.416-4.158,1.25-5.835s2.033-2.966,3.598-3.867c1.564-0.902,3.404-1.353,5.52-1.353c2.311,0,4.52,0.502,6.625,1.506
		l-1.77,4.548c-0.79-0.37-1.58-0.683-2.369-0.936C97.152,17.204,96.304,17.077,95.396,17.077z"/>
	<path stroke="#000000" stroke-miterlimit="10" d="M123.576,34.025h-6.522l-4.226-8.174l-1.711,1.023v7.15h-5.806V12.646h5.806
		v9.286c0.292-0.575,0.882-1.487,1.77-2.735l4.488-6.551h6.317l-6.741,9.578L123.576,34.025z"/>
</g>
<g>
	<rect x="2.625" y="12.125" width="45.75" height="7"/>
</g>
<g>
	<path fill="#FFFFFF" d="M50.584,45.25L48.1,38.096h-0.047c0.066,1.063,0.1,2.059,0.1,2.988v4.166h-1.271v-8.566h1.975l2.379,6.814
		h0.035l2.449-6.814h1.98v8.566h-1.348v-4.236c0-0.426,0.011-0.98,0.032-1.664s0.04-1.098,0.056-1.242h-0.047L51.82,45.25H50.584z"
		/>
	<path fill="#FFFFFF" d="M64.47,45.25l-0.855-2.379h-3.275l-0.838,2.379h-1.477l3.205-8.602h1.523l3.205,8.602H64.47z
		 M63.245,41.664l-0.803-2.332c-0.059-0.156-0.14-0.402-0.243-0.738s-0.175-0.582-0.214-0.738c-0.105,0.48-0.26,1.006-0.463,1.576
		l-0.773,2.232H63.245z"/>
	<path fill="#FFFFFF" d="M69.689,41.828v3.422h-1.4v-8.566h2.42c1.105,0,1.924,0.207,2.455,0.621s0.797,1.039,0.797,1.875
		c0,1.066-0.555,1.826-1.664,2.279l2.42,3.791h-1.594l-2.051-3.422H69.689z M69.689,40.668h0.973c0.652,0,1.125-0.121,1.418-0.363
		s0.439-0.602,0.439-1.078c0-0.484-0.158-0.832-0.475-1.043s-0.793-0.316-1.43-0.316h-0.926V40.668z"/>
	<path fill="#FFFFFF" d="M83.697,45.25h-1.623l-2.689-3.879l-0.826,0.674v3.205h-1.4v-8.566h1.4v4.09
		c0.383-0.469,0.764-0.92,1.143-1.354l2.314-2.736h1.594c-1.496,1.758-2.568,3.01-3.217,3.756L83.697,45.25z"/>
	<path fill="#FFFFFF" d="M90.874,45.25h-4.846v-8.566h4.846v1.184h-3.445v2.332h3.229v1.172h-3.229v2.689h3.445V45.25z"/>
	<path fill="#FFFFFF" d="M96.885,45.25h-1.4v-7.365h-2.52v-1.201h6.439v1.201h-2.52V45.25z"/>
	<path fill="#FFFFFF" d="M101.917,45.25v-8.566h1.4v8.566H101.917z"/>
	<path fill="#FFFFFF" d="M113.916,45.25h-1.717l-4.213-6.826h-0.047l0.029,0.381c0.055,0.727,0.082,1.391,0.082,1.992v4.453h-1.271
		v-8.566h1.699l4.201,6.791h0.035c-0.008-0.09-0.023-0.417-0.047-0.981s-0.035-1.005-0.035-1.321v-4.488h1.283V45.25z"/>
	<path fill="#FFFFFF" d="M120.881,40.604h3.152v4.301c-0.516,0.168-1.01,0.287-1.484,0.357s-0.988,0.105-1.539,0.105
		c-1.297,0-2.297-0.384-3-1.151s-1.055-1.851-1.055-3.249c0-1.379,0.396-2.458,1.189-3.237s1.885-1.169,3.275-1.169
		c0.895,0,1.742,0.172,2.543,0.516l-0.492,1.166c-0.695-0.32-1.391-0.48-2.086-0.48c-0.914,0-1.637,0.287-2.168,0.861
		s-0.797,1.359-0.797,2.355c0,1.047,0.24,1.843,0.719,2.388s1.166,0.817,2.064,0.817c0.453,0,0.938-0.057,1.453-0.17v-2.209h-1.775
		V40.604z"/>
</g>
<g>
	<path fill="#F3664D" d="M82.873,10.345c-2.01,1.289-8.05,0-8.05,0s1.374-5.986,3.384-7.274c2.009-1.289,4.682-0.704,5.971,1.305
		C85.466,6.384,84.881,9.058,82.873,10.345z"/>
</g>
</svg>
